<?xml version="1.0" standalone="no"?><!DOCTYPE svg PUBLIC "-//W3C//DTD SVG 1.1//EN" "http://www.w3.org/Graphics/SVG/1.1/DTD/svg11.dtd"><svg class="icon" width="200px" height="200.00px" viewBox="0 0 1024 1024" version="1.1" xmlns="http://www.w3.org/2000/svg"><path fill="#333333" d="M960.11 463.01C952.69 245.79 778.12 71 560.99 63.23c-7.66-0.27-14.01 5.88-14.01 13.55v391.38c0 4.88 3.96 8.84 8.84 8.84h390.74c7.66 0 13.81-6.34 13.55-13.99z"  /><path fill="#333333" d="M517 510c-2.21 0-4 1.79-4 4v-1c0-1.66-1.34-3-3-3 1.66 0 3-1.34 3-3V74.54c0-6.45-5.33-11.61-11.78-11.46C224.06 69.52 9.2 327.98 76.91 618.2c33.91 145.37 181.69 293.2 327.05 327.15 290.02 67.74 548.35-146.7 555.23-423.55 0.16-6.46-5-11.79-11.46-11.79H517z"  /></svg>