<?xml version="1.0" standalone="no"?><!DOCTYPE svg PUBLIC "-//W3C//DTD SVG 1.1//EN" "http://www.w3.org/Graphics/SVG/1.1/DTD/svg11.dtd"><svg class="icon" width="200px" height="200.00px" viewBox="0 0 1024 1024" version="1.1" xmlns="http://www.w3.org/2000/svg"><path fill="#333333" d="M651.17919922 491.21936035h82.43865966l166.57141114-143.45974731c-7.2756958-17.11395263-15.42892456-33.57202148-24.68380737-49.40139771L654.5970459 488.22998047l-3.41784668 2.98937989zM531.94760132 90.28155518v67.56591797l67.8180542-58.51867677C577.68560791 94.69888305 555.11694336 91.37579346 531.94842529 90.28155518z m348.79998779 400.93780518l48.08715821-41.39236451c-2.92016602-20.21292114-7.66873169-39.82516479-13.41677857-58.98999023L798.69372559 491.22677612h82.0546875v-0.00823974zM743.06555176 159.08343506l-211.11877442 181.4581604v70.95245361l254.77130128-219.55297852c-13.83206177-11.90890503-28.44030762-22.83398438-43.65252686-32.85763549zM649.34585571 112.73321533L531.94760132 213.73519898v70.9623413L703.96548462 136.39199829c-17.58444214-8.97390747-35.66244507-17.13043213-54.61962891-23.65878296zM851.84832763 262.52767945c-10.53286743-14.33798218-21.88723755-28.00689698-34.11502075-40.85925294l-285.78735351 245.70181275v23.84912109h54.43505859l265.46813965-228.6916809zM492.05157471 90.28155518C268.38613891 100.76251221 90.14230347 284.92578125 90.14230347 511.12658691c0 97.9367981 33.63464356 187.82666016 89.62042236 259.38885499L492.05157471 501.99282837V90.28155518z m27.27603149 440.77615356L205.74429321 800.71411133c76.95181274 81.3279419 185.5079956 132.31796265 306.27136231 132.31796265 226.22470093 0 410.37643432-178.27349854 420.87799072-401.97436524H519.32595825z m0 0" /></svg>