<?xml version="1.0" standalone="no"?><!DOCTYPE svg PUBLIC "-//W3C//DTD SVG 1.1//EN" "http://www.w3.org/Graphics/SVG/1.1/DTD/svg11.dtd"><svg class="icon" width="200px" height="200.00px" viewBox="0 0 1024 1024" version="1.1" xmlns="http://www.w3.org/2000/svg"><path fill="#333333" d="M415.11936 259.6864a75.18208 75.18208 0 1 1-150.36416 0 75.18208 75.18208 0 0 1 150.36416 0z m200.48896 100.23936H390.06208a445.44 445.44 0 0 1-30.1056 109.83424c0.80896-43.06944-7.48544-84.77696-7.48544-84.77696s12.53376-13.29152 12.53376-25.05728H314.88c0 11.76576 12.53376 25.05728 12.53376 25.05728s-8.27392 41.6256-7.48544 84.62336a442.69568 442.69568 0 0 1-30.1056-109.69088c-25.05728 0-100.23936 0-100.23936 75.18208v125.29664c0 75.18208 50.1248 75.18208 50.1248 75.18208v200.47872a50.13504 50.13504 0 0 0 100.2496 0 50.13504 50.13504 0 0 0 100.2496 0V435.10784H615.6288c25.05728 0 50.1248-12.53376 50.1248-37.59104s-25.088-37.59104-50.14528-37.59104z m62.64832 150.35392h-25.05728a37.60128 37.60128 0 0 0-37.59104 37.59104V848.5888a37.60128 37.60128 0 0 0 37.59104 37.59104h25.05728a37.60128 37.60128 0 0 0 37.59104-37.59104V547.87072a37.60128 37.60128 0 0 0-37.59104-37.59104zM552.96 610.52928h-25.05728a37.60128 37.60128 0 0 0-37.59104 37.59104v200.47872a37.60128 37.60128 0 0 0 37.59104 37.59104H552.96a37.60128 37.60128 0 0 0 37.59104-37.59104V648.12032A37.61152 37.61152 0 0 0 552.96 610.52928z m250.59328 75.17184h-25.05728a37.60128 37.60128 0 0 0-37.59104 37.59104V848.5888a37.60128 37.60128 0 0 0 37.59104 37.59104h25.05728a37.60128 37.60128 0 0 0 37.59104-37.59104V723.29216a37.60128 37.60128 0 0 0-37.59104-37.59104z"  /></svg>