<?xml version="1.0" standalone="no"?><!DOCTYPE svg PUBLIC "-//W3C//DTD SVG 1.1//EN" "http://www.w3.org/Graphics/SVG/1.1/DTD/svg11.dtd"><svg class="icon" width="500px" height="500.00px" viewBox="0 0 1024 1024" version="1.1" xmlns="http://www.w3.org/2000/svg"><path d="M866.816 29.696H156.16c-33.28 0-60.416 25.6-60.416 56.32v859.648c0 31.232 27.136 56.32 60.416 56.32H721.92c5.12 0 9.216-1.536 12.8-5.632l189.44-225.28c2.048-3.072 4.096-5.632 4.096-9.216V86.528c-1.536-31.744-28.16-56.832-61.44-56.832zM286.208 226.304h448.512c19.456 0 33.792 13.824 33.792 30.72 0 17.408-15.36 30.72-33.792 30.72H286.208c-19.456 0-33.792-13.824-33.792-30.72-0.512-16.896 14.848-30.72 33.792-30.72z m0 156.16h335.872c19.456 0 33.792 13.824 33.792 30.72s-15.36 30.72-33.792 31.744H286.208c-19.456 0-33.792-13.824-33.792-30.72-0.512-17.92 14.848-31.744 33.792-31.744z m-34.304 178.688c0-17.408 15.36-30.72 33.792-31.744h448.512c19.456 0 33.792 13.824 35.328 31.744 0 17.408-15.36 30.72-35.328 31.744H286.208c-18.944 0-34.304-14.336-34.304-31.744z m638.464 210.432l-161.28 192c-6.656 7.68-19.456 3.584-19.456-5.632v-144.896c0-32.768 28.16-59.904 64-59.904H880.64c9.728-0.512 15.872 10.24 9.728 18.432z" /></svg>