<?xml version="1.0" standalone="no"?><!DOCTYPE svg PUBLIC "-//W3C//DTD SVG 1.1//EN" "http://www.w3.org/Graphics/SVG/1.1/DTD/svg11.dtd"><svg class="icon" width="200px" height="172.83px" viewBox="0 0 1185 1024" version="1.1" xmlns="http://www.w3.org/2000/svg"><path fill="#333333" d="M0.190171 336.456566h43.695468v412.29095a43.885639 43.885639 0 0 0 43.885639 43.885639H1099.52543a43.885639 43.885639 0 0 0 43.885639-43.885639V88.093106a43.885639 43.885639 0 0 0-43.885639-43.885639H87.771278a43.885639 43.885639 0 0 0-43.885639 43.885639V204.799649H0.190171V87.771278a87.771278 87.771278 0 0 1 87.771279-87.771278h1009.369698a87.771278 87.771278 0 0 1 87.771278 87.771278v658.284586a87.771278 87.771278 0 0 1-87.771278 87.771278H87.96145a87.771278 87.771278 0 0 1-87.771279-87.771278V336.456566z"  /><path fill="#333333" d="M21.94282 225.92327c13.575291 0 22.118362-11.263981 21.942819-21.123621-0.175543-9.85964-8.367529-22.762018-21.942819-22.762018-13.560662 0-21.94282 12.156322-21.94282 22.762018 0 10.605696 8.382157 21.123621 21.94282 21.123621zM21.94282 315.332945c13.560662 0 22.118362 11.263981 21.942819 21.123621-0.175543 9.85964-8.382157 22.762018-21.942819 22.762018s-21.94282-12.156322-21.94282-22.762018c0-10.605696 8.382157-21.123621 21.94282-21.123621zM741.418615 1023.998245H459.29247c-14.482261 0-27.896638-6.202504-36.878565-17.071514-8.996556-11.015295-12.507407-25.0587-9.391527-38.721762l33.353086-149.401344c3.657137-16.822828 22.059848-26.185098 39.657989-26.185098h235.870681c17.583513 0 30.19332 9.36227 34.11377 26.038812l31.539146 149.415973a45.041294 45.041294 0 0 1-9.391527 38.590105A46.89912 46.89912 0 0 1 741.418615 1023.998245zM487.189108 831.150118c-0.877713 0-1.784683 0.819199-2.121139 1.740797l-28.657323 136.601366c-0.877713 4.388564 0.892341 7.519073 2.135768 9.128213a9.947412 9.947412 0 0 0 8.045701 4.052107H734.543198a10.357011 10.357011 0 0 0 8.177358-4.052107 11.029924 11.029924 0 0 0 2.121139-9.128213v-0.1024l-27.092068-136.381938c-0.336457-0.936227-1.00937-1.623769-2.004111-1.623768H487.174479v-0.234057zM600.297028 761.181781c-15.974373 0-35.064626-2.925709-56.627103-12.112437-8.967299-3.657137-13.004778-13.458263-8.967298-21.898933 3.891193-8.4553 14.29209-12.112436 23.259388-8.4553 41.164729 17.144656 67.145028 6.246389 81.042147 0.49737l1.053255-0.49737c8.95267-3.657137 19.353567 0.131657 23.259389 8.4553 3.891193 8.440671-0.146285 18.227169-8.981927 21.898933l-1.023999 0.497371c-9.874269 4.154507-27.794238 11.615066-53.013852 11.615066zM790.131674 292.570927v336.456566h-43.885639V292.570927zM921.788592 380.342205v248.685288h-43.88564V380.342205zM1031.502689 482.74203v146.285463h-43.885639V482.74203z"  /><path fill="#333333" d="M380.532377 219.428195L161.104181 375.880498 244.94038 629.027493H516.139001L599.960572 375.880498 380.532377 219.428195z m138.151991 165.053889l-124.445044-88.707505v-33.016629l158.090701 112.40575-33.645657 9.318384z m-309.94964-8.967299l158.076072-112.756835v33.279943l-124.430415 88.444191-33.645657-8.967299z m158.076072-46.460263v89.702246l-90.87253-25.307385 90.887159-64.394861z m-8.484557 115.711801l-60.07944 84.699284-36.571366-111.70358 96.636178 27.004296zM380.532377 460.565153l29.344864 41.618215-78.350495 27.721095 49.005631-69.33931z m-75.98067 107.197988l121.694877-42.715355 54.857049 77.063182H280.604776l23.946931-34.347827z m98.201431-122.996818l76.521926-21.357677-48.464374 61.191209-28.057552-39.833532z m-8.513814-25.65847v-89.702246l90.887159 64.775203-90.887159 24.927043zM197.675547 400.090743l31.817088 8.981927L278.586037 557.347616l-19.660766 27.808867-61.249724-185.051112z m304.185993 184.977968l-54.857049-77.326496 76.697469-96.694691 39.687246-10.956781-61.527666 184.977968z"  /></svg>