<?xml version="1.0" standalone="no"?><!DOCTYPE svg PUBLIC "-//W3C//DTD SVG 1.1//EN" "http://www.w3.org/Graphics/SVG/1.1/DTD/svg11.dtd"><svg class="icon" width="200px" height="200.00px" viewBox="0 0 1024 1024" version="1.1" xmlns="http://www.w3.org/2000/svg"><path fill="#333333" d="M881.777778 1024 142.222222 1024C110.819556 1024 85.333333 998.513778 85.333333 967.111111L85.333333 170.666667C85.333333 139.264 110.819556 113.777778 142.222222 113.777778L256 113.777778C256 145.180444 281.486222 170.666667 312.888889 170.666667L711.111111 170.666667C742.513778 170.666667 768 145.180444 768 113.777778L881.777778 113.777778C913.180444 113.777778 938.666667 139.264 938.666667 170.666667L938.666667 967.111111C938.666667 998.513778 913.180444 1024 881.777778 1024ZM768 284.444444 256 284.444444C224.597333 284.444444 199.111111 309.930667 199.111111 341.333333 199.111111 372.736 224.597333 398.222222 256 398.222222L768 398.222222C799.402667 398.222222 824.888889 372.736 824.888889 341.333333 824.888889 309.930667 799.402667 284.444444 768 284.444444ZM768 512 256 512C224.597333 512 199.111111 537.486222 199.111111 568.888889 199.111111 600.291556 224.597333 625.777778 256 625.777778L768 625.777778C799.402667 625.777778 824.888889 600.291556 824.888889 568.888889 824.888889 537.486222 799.402667 512 768 512ZM768 739.555556 256 739.555556C224.597333 739.555556 199.111111 765.041778 199.111111 796.444444 199.111111 827.847111 224.597333 853.333333 256 853.333333L768 853.333333C799.402667 853.333333 824.888889 827.847111 824.888889 796.444444 824.888889 765.041778 799.402667 739.555556 768 739.555556ZM654.222222 113.777778 369.777778 113.777778C338.375111 113.777778 312.888889 88.291556 312.888889 56.888889 312.888889 25.486222 338.375111 0 369.777778 0L654.222222 0C685.624889 0 711.111111 25.486222 711.111111 56.888889 711.111111 88.291556 685.624889 113.777778 654.222222 113.777778Z" /></svg>