<?xml version="1.0" standalone="no"?><!DOCTYPE svg PUBLIC "-//W3C//DTD SVG 1.1//EN" "http://www.w3.org/Graphics/SVG/1.1/DTD/svg11.dtd"><svg class="icon" width="200px" height="200.00px" viewBox="0 0 1024 1024" version="1.1" xmlns="http://www.w3.org/2000/svg"><path fill="#333333" d="M123.875 832.625h227.8125V478.25l-63.28125-42.1875L123.875 571.0625v261.5625z m278.4375 0h227.8125V478.25L520.4375 566.84375l-118.125-59.0625v324.84375zM680.75 436.0625v396.5625h227.8125V440.28125L811.53125 317.9375 680.75 436.0625z"  /><path fill="#333333" d="M157.625 474.03125L279.96875 372.78125 516.21875 512l278.4375-257.34375 4.21875-4.21875 46.40625 46.40625L921.21875 90.125 706.0625 157.625l50.625 50.625L512 436.0625 275.75 301.0625 119.65625 427.625c-12.65625 8.4375-12.65625 29.53125-4.21875 42.1875s29.53125 12.65625 42.1875 4.21875z m746.71875 400.78125H119.65625C102.78125 874.8125 90.125 887.46875 90.125 904.34375c0 16.875 12.65625 29.53125 29.53125 29.53125h784.6875c16.875 0 29.53125-12.65625 29.53125-29.53125 0-16.875-12.65625-29.53125-29.53125-29.53125z"  /></svg>