<?xml version="1.0" standalone="no"?><!DOCTYPE svg PUBLIC "-//W3C//DTD SVG 1.1//EN" "http://www.w3.org/Graphics/SVG/1.1/DTD/svg11.dtd"><svg class="icon" width="500px" height="500.00px" viewBox="0 0 1024 1024" version="1.1" xmlns="http://www.w3.org/2000/svg"><path  d="M826.49088 251.00288a75.18208 75.18208 0 1 1-150.36416 0 75.18208 75.18208 0 0 1 150.36416 0z m-25.05728 100.23936a445.184 445.184 0 0 1-30.1056 109.83424c0.80896-43.06944-7.48544-84.77696-7.48544-84.77696s12.53376-13.29152 12.53376-25.05728h-50.1248c0 11.76576 12.53376 25.05728 12.53376 25.05728s-8.27392 41.6256-7.48544 84.65408a443.14624 443.14624 0 0 1-30.1056-109.71136c-25.05728 0-100.23936 0-100.23936 75.18208v100.23936c0 75.18208 50.1248 75.18208 50.1248 75.18208V827.392a50.13504 50.13504 0 0 0 100.2496 0 50.13504 50.13504 0 0 0 100.2496 0V601.84576s50.1248 0 50.1248-75.18208v-100.23936c-0.03072-75.18208-75.2128-75.18208-100.27008-75.18208zM438.05696 451.4816a62.64832 62.64832 0 0 0-62.64832 62.64832v300.71808a62.64832 62.64832 0 0 0 62.64832 62.64832h50.1248a62.64832 62.64832 0 0 0 62.64832-62.64832V514.12992a62.64832 62.64832 0 0 0-62.64832-62.64832h-50.1248zM187.45344 601.84576a62.64832 62.64832 0 0 0-62.64832 62.64832v150.36416a62.64832 62.64832 0 0 0 62.64832 62.64832h50.1248a62.64832 62.64832 0 0 0 62.64832-62.64832V664.49408a62.64832 62.64832 0 0 0-62.64832-62.64832h-50.1248z m308.09088-347.12576l-106.68032-20.67456c-13.50656-2.64192-26.18368 10.84416-20.89984 21.78048l16.25088 33.47456C263.35232 337.9712 201.41056 428.43136 260.7104 515.18464c0-84.18304 58.19392-119.52128 154.5216-162.00704l17.00864 35.05152c5.33504 10.96704 23.88992 9.15456 30.07488-2.93888l49.70496-96.52224c7.7312-14.98112-0.0512-30.8224-16.47616-34.048z"  /></svg>