<?xml version="1.0" standalone="no"?><!DOCTYPE svg PUBLIC "-//W3C//DTD SVG 1.1//EN" "http://www.w3.org/Graphics/SVG/1.1/DTD/svg11.dtd"><svg t="1614679188750" class="icon" viewBox="0 0 1024 1024" version="1.1" xmlns="http://www.w3.org/2000/svg" p-id="2685" xmlns:xlink="http://www.w3.org/1999/xlink" width="200" height="200"><defs><style type="text/css"></style></defs><path d="M928 128H640c0-70.692-57.306-128-128-128s-128 57.308-128 128H96c-17.672 0-32 14.328-32 32v832c0 17.674 14.328 32 32 32h832c17.674 0 32-14.326 32-32V160c0-17.672-14.326-32-32-32zM512 64c35.346 0 64 28.654 64 64s-28.654 64-64 64c-35.346 0-64-28.654-64-64s28.654-64 64-64z m384 896H128V192h128v96c0 17.672 14.328 32 32 32h448c17.674 0 32-14.328 32-32V192h128v768z" p-id="2686"></path><path d="M448 858.51L242.746 621.256l58.508-58.51L448 677.49l274.742-242.744 58.514 58.508z" p-id="2687"></path></svg>